<svg width="13" height="10" viewBox="0 0 13 10" fill="none" xmlns="http://www.w3.org/2000/svg">
<path d="M0.627795 4.9323C0.57855 4.79963 0.57855 4.65371 0.627795 4.52104C1.10741 3.3581 1.92154 2.36376 2.96696 1.66407C4.01238 0.964382 5.24202 0.590861 6.49998 0.590861C7.75794 0.590861 8.98758 0.964382 10.033 1.66407C11.0784 2.36376 11.8925 3.3581 12.3722 4.52104C12.4214 4.65371 12.4214 4.79963 12.3722 4.9323C11.8925 6.09524 11.0784 7.08958 10.033 7.78927C8.98758 8.48896 7.75794 8.86248 6.49998 8.86248C5.24202 8.86248 4.01238 8.48896 2.96696 7.78927C1.92154 7.08958 1.10741 6.09524 0.627795 4.9323Z" stroke="black" stroke-width="1.16667" stroke-linecap="round" stroke-linejoin="round"/>
</svg>
